<svg xmlns="http://www.w3.org/2000/svg" viewBox="0 0 305.39 75">
    <path class="cls-1" d="M47.5,37.23A10.27,10.27,0,1,1,37.23,27,10.27,10.27,0,0,1,47.5,37.23"/>
    <path class="cls-1"
          d="M39.43,53.82a15.94,15.94,0,0,1-2.2.15A16.73,16.73,0,0,1,25.81,25L15.9,14.38A31.26,31.26,0,0,0,37.23,68.5a30.84,30.84,0,0,0,4.11-.27L39.43,53.82"/>
    <path class="cls-1"
          d="M37.23,0A37.21,37.21,0,0,0,0,37.23,37.48,37.48,0,0,0,1.11,46.3L6.9,44.85a31.17,31.17,0,0,1,9-30.47l5,5.4a23.85,23.85,0,0,1,33.52.93l9.64-9.25-.54-.56A37,37,0,0,0,37.23,0"/>
    <path class="cls-1"
          d="M15.9,14.39a31.31,31.31,0,0,0-9,30.46l7.18-1.8a23.86,23.86,0,0,1,6.87-23.27l-5-5.39"/>
    <path class="cls-1"
          d="M55.71,49.83a22.39,22.39,0,0,1-15.54,9.58l1.18,8.82a31.09,31.09,0,0,1-25.29-8L11.65,65a37.76,37.76,0,0,0,52.29-1.07,38.6,38.6,0,0,0,4.5-5.43L55.71,49.83"/>
    <path class="cls-1"
          d="M22.08,53.68l-6,6.55a31.17,31.17,0,0,0,21.17,8.28,30.83,30.83,0,0,0,4.11-.28l-1.17-8.82a21.88,21.88,0,0,1-2.94.2,22.28,22.28,0,0,1-15.15-5.93"/>
    <path class="cls-1"
          d="M300.36,24.83h4.46a.57.57,0,0,1,.57.57V49.06a.56.56,0,0,1-.57.57h-4.46a.57.57,0,0,1-.58-.57V25.4a.58.58,0,0,1,.58-.57m-174.17.93L116,44.6a.17.17,0,0,1-.31,0L105.47,25.76a1.75,1.75,0,0,0-1.55-.93H91.05c-3.73,0-6.68.08-7.76.18-3.14.25-4.85.8-6.16,2-1.75,1.53-2.3,3.79-2.3,9.48a45.78,45.78,0,0,0,.3,6.88,6.25,6.25,0,0,0,3,5c2.08,1.12,4.08,1.34,11.51,1.34h13.56a.56.56,0,0,0,.57-.57V45.62a.58.58,0,0,0-.57-.58H91.05c-6.35,0-7.48-.13-8.78-.83-1-.52-1.48-1.52-1.64-4a.33.33,0,0,1,.33-.35H99.72a.58.58,0,0,0,.57-.58V36.12a.57.57,0,0,0-.57-.57H80.9a.33.33,0,0,1-.33-.34c.11-5.7,1.14-5.79,10.48-5.79h9.69a.9.9,0,0,1,.78.46l10.4,19.18a1.11,1.11,0,0,0,1,.57h5.88a1.1,1.1,0,0,0,1-.57l12.83-23.58a.44.44,0,0,0-.38-.65h-4.44a1.77,1.77,0,0,0-1.56.93m38.6,23.87h4.47a.57.57,0,0,0,.57-.57V33.77a.88.88,0,0,0-.88-.89h-4.16a.58.58,0,0,0-.57.58v15.6a.57.57,0,0,0,.57.57M191.18,25.4V44.84a.18.18,0,0,1-.31.12L173.29,25.48a2,2,0,0,0-1.47-.65H148.43c-3.72,0-6.67.08-7.76.18-3.14.25-4.85.8-6.16,2-1.75,1.53-2.3,3.79-2.3,9.48a45.78,45.78,0,0,0,.3,6.88,6.25,6.25,0,0,0,3,5c2.08,1.12,4.08,1.34,11.51,1.34h12.15a.57.57,0,0,0,.57-.57V45.62a.58.58,0,0,0-.57-.58H148.43c-6.35,0-7.48-.13-8.78-.83-1-.52-1.47-1.52-1.64-4a.33.33,0,0,1,.33-.35h19.21a.58.58,0,0,0,.58-.58V36.12a.57.57,0,0,0-.58-.57H138.28a.33.33,0,0,1-.33-.34c.11-5.7,1.14-5.79,10.48-5.79h20.42a1.11,1.11,0,0,1,.82.36l17.42,19.34a1.55,1.55,0,0,0,1.15.51h8a.56.56,0,0,0,.57-.57V25.4a.57.57,0,0,0-.57-.57h-4.46a.57.57,0,0,0-.57.57m65.5,16.67A3.77,3.77,0,0,0,255,40.91a.11.11,0,0,1,0-.22,8,8,0,0,0,5.23-2.25,7.59,7.59,0,0,0,1.7-5.36c0-2.77-.86-5-2-6.07-1.62-1.45-3.56-2.18-9.71-2.18H216.49c-3.71,0-6.66.08-7.75.18-3.14.25-4.85.8-6.16,2-1.75,1.53-2.3,3.79-2.3,9.48a45.78,45.78,0,0,0,.3,6.88,6.25,6.25,0,0,0,3,5c2.08,1.12,4.08,1.34,11.51,1.34h13.12a.56.56,0,0,0,.57-.57V45.62a.57.57,0,0,0-.57-.58h-11.7c-6.34,0-7.47-.13-8.77-.83-1-.52-1.47-1.52-1.64-4a.33.33,0,0,1,.33-.35H227a.57.57,0,0,0,.57-.58V36.12a.56.56,0,0,0-.57-.57H206.35a.33.33,0,0,1-.33-.34c.11-5.7,1.14-5.79,10.47-5.79h34.37c2.38,0,3.86.42,4.44.93s1,1.11,1,2.82a3.88,3.88,0,0,1-.85,3c-.68.64-2,1.06-4.36,1.06H238.65a.33.33,0,0,1-.33-.33v-3.4a.57.57,0,0,0-.57-.58h-4.43a.58.58,0,0,0-.57.58v15.6a.57.57,0,0,0,.57.57h4.43a.56.56,0,0,0,.57-.57V41.85a.33.33,0,0,1,.33-.33h8.2a3.48,3.48,0,0,1,2.9,1.16l5.78,6.44a1.52,1.52,0,0,0,1.15.51h5.81a.44.44,0,0,0,.33-.73l-6.14-6.83m38.56-5.87a.58.58,0,0,1,.58.57v2.5c0,4.44-.26,5.87-1.13,7.47a5.5,5.5,0,0,1-3.82,2.59c-1.32.33-3.39.4-10.72.4-6.44,0-9.58-.22-11.07-.8a5.85,5.85,0,0,1-4-4.88,32.32,32.32,0,0,1-.4-6.58c0-6.41.4-8.59,2-10.3a6.92,6.92,0,0,1,4.37-2c2.26-.33,4.85-.44,12-.44s9.65.51,11.18,2.26c1,1.08,1.49,2.89,1.56,5.3a.57.57,0,0,1-.57.59h-4.37a.57.57,0,0,1-.57-.54,2.73,2.73,0,0,0-.89-2.26c-.95-.76-2.19-.91-6.92-.91-8.78,0-10.13.15-11.08,1.28-.76.87-1,2.61-1,6.4,0,4.73.29,6.5,1.31,7.38s2.44,1.13,9,1.13c7.21,0,8-.15,9.07-1.71a5,5,0,0,0,.65-2.8.34.34,0,0,0-.33-.34H277.81a.57.57,0,0,1-.57-.57V36.77a.58.58,0,0,1,.57-.57Z"/>
</svg>