<svg xmlns="http://www.w3.org/2000/svg" viewBox="0 0 963.6357 1055.65">
    <defs>
        <style>.cls-1{fill:none; stroke: #002231; stroke-width: 4; }</style>
    </defs>
    <path class="cls-1" d="M670,525.53A144.44,144.44,0,1,1,525.54,381.11h.02A144.42,144.42,0,0,1,670,525.51v.02"
          transform="translate(-1.4998 -1.5)"/>
    <path class="cls-1"
          d="M556.5,758.82a234.53,234.53,0,0,1-31,2c-129.75,0-235.34-105.55-235.34-235.34A234.77,234.77,0,0,1,365,353.63L225.54,204.27C139.59,284.59,85.75,398.9,85.75,525.53,85.75,768,283.07,965.3,525.55,965.3a444.99,444.99,0,0,0,57.83-3.79L556.5,758.82"
          transform="translate(-1.4998 -1.5)"/>
    <path class="cls-1"
          d="M525.54,2C385.68,2,254.22,56.47,155.35,155.35S2,385.68,2,525.54A525.62,525.62,0,0,0,17.61,653.11L99,632.67A439.3727,439.3727,0,0,1,85.74,525.54c0-126.66,53.83-240.94,139.79-321.26l70.91,75.92c134.1287-125.544,344.3155-119.7466,471.32,13L903.35,163.13c-2.52-2.61-5-5.23-7.62-7.78C796.86,56.47,665.39,2,525.54,2"
          transform="translate(-1.4998 -1.5)"/>
    <path class="cls-1"
          d="M225.54,204.28c-86,80.32-139.79,194.63-139.79,321.23A440.5182,440.5182,0,0,0,98.94,632.67l100.85-25.34a337.2642,337.2642,0,0,1-10.1-81.82c0-96.69,41.12-184,106.76-245.31l-70.91-75.92"
          transform="translate(-1.4998 -1.5)"/>
    <path class="cls-1"
          d="M785.42,702.74c-49.37,72.12-127.91,122.77-218.49,134.75l16.47,124a443.5689,443.5689,0,0,1-57.86,3.83c-114.75,0-219.36-44.2-297.76-116.43l-62,67.29C264.09,1007,391,1056.65,525.54,1056.65c141.87,0,275.25-55.24,375.57-155.56a536.3394,536.3394,0,0,0,63.33-76.29l-179-122.06"
          transform="translate(-1.4998 -1.5)"/>
    <path class="cls-1"
          d="M312.51,756.87l-84.74,92c78.4,72.23,183,116.43,297.8,116.43a442.9568,442.9568,0,0,0,57.82-3.83l-16.47-124a314.32,314.32,0,0,1-254.41-80.59"
          transform="translate(-1.4998 -1.5)"/>
</svg>