<svg xmlns="http://www.w3.org/2000/svg" viewBox="0 0 1195.185 550.908">
    <path d="M1040.707,273.482a75.037,75.037,0,1,1-75.028-75.026,75.027,75.027,0,0,1,75.028,75.026"
          style="fill:none;stroke:#fff;stroke-linejoin:round;stroke-width:3px"/>
    <path d="M981.754,394.681a122.211,122.211,0,0,1-99.491-210.506l-72.447-77.591a227.89,227.89,0,0,0-72.621,166.9c0,125.976,102.507,228.465,228.482,228.465a230.875,230.875,0,0,0,30.043-1.97l-13.966-105.3"
          style="fill:none;stroke:#fff;stroke-linejoin:round;stroke-width:3px"/>
    <path d="M965.671,1.5A272,272,0,0,0,693.685,273.486a273.208,273.208,0,0,0,8.108,66.275l42.265-10.619a228.267,228.267,0,0,1,65.751-222.554l36.843,39.44a174.17,174.17,0,0,1,244.855,6.748l70.442-67.565c-1.308-1.36-2.615-2.72-3.958-4.045A270.2,270.2,0,0,0,965.671,1.5"
          style="fill:none;stroke:#fff;stroke-linejoin:round;stroke-width:3px"/>
    <path d="M809.815,106.589a228.39,228.39,0,0,0-65.769,222.556l52.395-13.166A174.284,174.284,0,0,1,846.657,146.03l-36.842-39.441"
          style="fill:none;stroke:#fff;stroke-linejoin:round;stroke-width:3px"/>
    <path d="M1100.681,365.543A163.774,163.774,0,0,1,987.172,435.55l8.561,64.427a231.14,231.14,0,0,1-30.06,1.987,227.67,227.67,0,0,1-154.694-60.485l-32.2,34.959a275.883,275.883,0,0,0,382.008-7.847,278.614,278.614,0,0,0,32.9-39.633l-93-63.415"
          style="fill:none;stroke:#fff;stroke-linejoin:round;stroke-width:3px"/>
    <path d="M855,393.668l-44.027,47.81a227.674,227.674,0,0,0,154.711,60.486,230.866,230.866,0,0,0,30.043-1.988l-8.561-64.444A163.317,163.317,0,0,1,855,393.668"
          style="fill:none;stroke:#fff;stroke-linejoin:round;stroke-width:3px"/>
    <line y1="54.767" x2="804" y2="54.767" stroke="#fff" stroke-width="4"/>
</svg>