<svg xmlns="http://www.w3.org/2000/svg" viewBox="0 0 305.393 75">
    <path d="M47.5,37.23a10.271,10.271,0,1,1-10.27-10.271A10.269,10.269,0,0,1,47.5,37.23" style="fill:#00283b"/>
    <path d="M39.432,53.82a16.5,16.5,0,0,1-2.2.147A16.729,16.729,0,0,1,25.813,25.005L15.9,14.385A31.258,31.258,0,0,0,37.231,68.5a31.537,31.537,0,0,0,4.113-.269L39.432,53.82"
          style="fill:#ff8d00"/>
    <path d="M37.231,0A37.232,37.232,0,0,0,0,37.231,37.383,37.383,0,0,0,1.11,46.3L6.9,44.849a31.241,31.241,0,0,1,9-30.464l5.043,5.4a23.84,23.84,0,0,1,33.517.924L64.1,11.459c-.179-.187-.358-.373-.542-.554A36.987,36.987,0,0,0,37.231,0"
          style="fill:#004b70"/>
    <path d="M15.9,14.385a31.264,31.264,0,0,0-9,30.465l7.172-1.8a23.857,23.857,0,0,1,6.874-23.262l-5.043-5.4"
          style="fill:#140345"/>
    <path d="M55.711,49.832a22.419,22.419,0,0,1-15.538,9.583l1.172,8.819a31.726,31.726,0,0,1-4.114.272,31.167,31.167,0,0,1-21.176-8.28l-4.408,4.786a37.766,37.766,0,0,0,52.291-1.074,38.219,38.219,0,0,0,4.5-5.425L55.711,49.832"
          style="fill:#19b3ff"/>
    <path d="M22.082,53.682l-6.026,6.544a31.159,31.159,0,0,0,21.177,8.28,31.52,31.52,0,0,0,4.112-.272l-1.172-8.822a22.342,22.342,0,0,1-18.091-5.73"
          style="fill:#870058"/>
    <path d="M300.357,24.829h4.461a.575.575,0,0,1,.575.573v23.66a.575.575,0,0,1-.575.573h-4.461a.575.575,0,0,1-.575-.573V25.4a.575.575,0,0,1,.575-.573M126.2,25.756,116,44.6a.173.173,0,0,1-.308,0L105.473,25.756a1.766,1.766,0,0,0-1.551-.927H91.045c-3.72.015-6.671.084-7.759.18-3.134.255-4.845.8-6.158,1.966-1.747,1.53-2.3,3.788-2.3,9.471a46.571,46.571,0,0,0,.294,6.885,6.242,6.242,0,0,0,2.986,4.955c2.076,1.129,4.079,1.349,11.511,1.349H103.18a.573.573,0,0,0,.572-.573V45.616a.573.573,0,0,0-.575-.571H91.045c-6.343-.01-7.477-.136-8.778-.838-1.012-.52-1.473-1.513-1.637-3.978a.333.333,0,0,1,.331-.354H99.716a.573.573,0,0,0,.573-.575V36.119a.572.572,0,0,0-.573-.573H80.9a.331.331,0,0,1-.331-.339c.11-5.693,1.138-5.79,10.477-5.79h9.7a.886.886,0,0,1,.775.463l10.4,19.177a1.1,1.1,0,0,0,.971.578h5.881a1.1,1.1,0,0,0,.969-.575l12.831-23.579a.441.441,0,0,0-.387-.652h-4.437a1.767,1.767,0,0,0-1.553.927m38.6,23.879h4.463a.575.575,0,0,0,.575-.573V33.77a.884.884,0,0,0-.883-.885h-4.155a.575.575,0,0,0-.573.575v15.6a.575.575,0,0,0,.573.573M191.176,25.4V44.84a.176.176,0,0,1-.306.119L173.3,25.484a1.992,1.992,0,0,0-1.475-.655H148.427c-3.721.015-6.671.084-7.759.18-3.134.255-4.847.8-6.158,1.966-1.749,1.53-2.3,3.788-2.3,9.471a46.138,46.138,0,0,0,.294,6.885,6.235,6.235,0,0,0,2.986,4.955c2.076,1.129,4.079,1.349,11.511,1.349h12.141a.574.574,0,0,0,.573-.573V45.616a.572.572,0,0,0-.573-.571H148.427c-6.346-.01-7.48-.136-8.781-.838-1.011-.52-1.47-1.513-1.634-3.978a.331.331,0,0,1,.329-.354h19.213a.573.573,0,0,0,.575-.575V36.119a.572.572,0,0,0-.575-.573H138.279a.333.333,0,0,1-.332-.339c.112-5.693,1.141-5.79,10.48-5.79h20.421a1.1,1.1,0,0,1,.819.365L187.1,49.122a1.542,1.542,0,0,0,1.148.513h7.969a.575.575,0,0,0,.573-.573V25.4a.575.575,0,0,0-.573-.573h-4.461a.575.575,0,0,0-.575.573m65.5,16.669a3.749,3.749,0,0,0-1.669-1.162.11.11,0,0,1,.022-.215,8.081,8.081,0,0,0,5.234-2.258,7.59,7.59,0,0,0,1.7-5.356c0-2.768-.862-5.016-2.034-6.069-1.613-1.449-3.561-2.182-9.709-2.182H216.5c-3.719.015-6.669.084-7.76.18-3.131.255-4.843.8-6.155,1.966-1.75,1.53-2.3,3.788-2.3,9.471a46.719,46.719,0,0,0,.291,6.885,6.244,6.244,0,0,0,2.988,4.955c2.077,1.129,4.079,1.349,11.511,1.349h13.115a.573.573,0,0,0,.573-.573V45.616a.571.571,0,0,0-.573-.571H216.5c-6.344-.01-7.476-.136-8.779-.838-1.012-.52-1.47-1.513-1.635-3.978a.334.334,0,0,1,.33-.354h20.628a.575.575,0,0,0,.575-.575V36.119a.574.574,0,0,0-.575-.573h-20.69a.333.333,0,0,1-.332-.339c.112-5.693,1.138-5.79,10.478-5.79h34.369c2.374,0,3.857.42,4.434.933.554.492,1.017,1.107,1.017,2.819a3.883,3.883,0,0,1-.855,2.959c-.68.647-2.043,1.065-4.358,1.065H238.653a.331.331,0,0,1-.332-.329v-3.4a.573.573,0,0,0-.573-.575h-4.427a.575.575,0,0,0-.573.575v15.6a.575.575,0,0,0,.573.573h4.427a.573.573,0,0,0,.573-.573v-7.21a.331.331,0,0,1,.332-.332h8.2a3.48,3.48,0,0,1,2.9,1.165c.558.627,4.429,4.938,5.776,6.437a1.537,1.537,0,0,0,1.148.513h5.814a.442.442,0,0,0,.327-.738c-1.545-1.716-5.321-5.914-6.141-6.826M295.245,36.2a.576.576,0,0,1,.575.575v2.494c0,4.444-.256,5.871-1.131,7.475a5.492,5.492,0,0,1-3.824,2.585c-1.312.328-3.389.4-10.712.4-6.446,0-9.58-.217-11.074-.8a5.833,5.833,0,0,1-4.043-4.881,32.96,32.96,0,0,1-.4-6.581c0-6.411.4-8.585,1.966-10.3a6.94,6.94,0,0,1,4.373-2c2.258-.327,4.845-.434,11.986-.434,7.1,0,9.652.508,11.182,2.258.978,1.078,1.489,2.9,1.559,5.3a.577.577,0,0,1-.576.59H290.76a.574.574,0,0,1-.573-.537,2.7,2.7,0,0,0-.89-2.256c-.945-.766-2.184-.911-6.922-.911-8.778,0-10.127.145-11.071,1.276-.767.874-1.022,2.609-1.022,6.4,0,4.737.291,6.508,1.31,7.382,1.058.948,2.442,1.131,9.034,1.131,7.215,0,7.979-.148,9.072-1.713a4.919,4.919,0,0,0,.651-2.793.331.331,0,0,0-.331-.339h-12.2a.574.574,0,0,1-.572-.575V36.775a.574.574,0,0,1,.572-.575Z"
          style="fill:#00283b"/>
</svg>