<svg xmlns="http://www.w3.org/2000/svg" viewBox="0 0 211.406 220"><title>problems04-ico</title><path d="M211.406,114.3a103.435,103.435,0,0,0-10.737-45.846c5.485-10.86,8.159-19.212,8.159-25.482a42.962,42.962,0,0,0-72.647-31.064C125.92,8.872,115.131,8.594,105.7,8.594c-33.369,0-65.425,16.842-85.748,45.053a4.3,4.3,0,0,0,6.973,5.022,103.206,103.206,0,0,1,8.244-10.03,79.137,79.137,0,0,0,15.986,14.7A159.167,159.167,0,0,0,43.031,110H8.7a92.511,92.511,0,0,1,3.715-21.9,4.3,4.3,0,1,0-8.239-2.441A100.8,100.8,0,0,0,0,114.3C0,171.408,48.87,220,105.7,220c57.111,0,105.7-48.871,105.7-105.7m-159.778,4.3h49.778v30.17a95.636,95.636,0,0,0-42.74,11.8,151.018,151.018,0,0,1-7.038-41.97m49.778,38.77V211.05c-18.782-3.092-32.661-24.4-39.79-42.278a86.81,86.81,0,0,1,39.79-11.408M110,211.043V157.364a87.3,87.3,0,0,1,38.331,10.581c-8.9,24.588-23.159,40.54-38.331,43.1m41.033-51.406A96.208,96.208,0,0,0,110,148.764V118.588h47.205a163,163,0,0,1-6.172,41.049M110,17.216a99.3,99.3,0,0,1,20.073,1.978,42.824,42.824,0,0,0-7.182,23.775c0,6.159,2.578,14.335,7.863,24.9A90.462,90.462,0,0,1,110,71.227Zm-8.594.327V71.229a86.8,86.8,0,0,1-39.79-11.407c7.132-17.884,21.019-39.189,39.79-42.279M110,79.831a98.79,98.79,0,0,0,24.873-4.225A365.165,365.165,0,0,0,157.291,110H110ZM195.543,77.9A94.914,94.914,0,0,1,202.7,110H174.43a375.605,375.605,0,0,0,21.113-32.1M165.859,8.594a34.413,34.413,0,0,1,34.375,34.375c0,15.752-24.987,51.443-34.375,64.171-9.355-12.685-34.375-48.4-34.375-64.171A34.385,34.385,0,0,1,165.859,8.594M41.322,42.577A99.01,99.01,0,0,1,75.58,22.265c-8.3,7.944-15.632,19.089-21.287,32.741A69.838,69.838,0,0,1,41.322,42.577M58.666,68.029a95.648,95.648,0,0,0,42.74,11.8V110H51.628a151.013,151.013,0,0,1,7.038-41.971M8.7,118.594H43.031a159.166,159.166,0,0,0,8.127,46.661,79.147,79.147,0,0,0-16.123,14.869A96.89,96.89,0,0,1,8.7,118.594m32.495,67.583a69.715,69.715,0,0,1,13.1-12.59c5.688,13.731,13.076,24.927,21.431,32.879a98.767,98.767,0,0,1-34.531-20.289m93.633,20.573c9.432-9.238,16.307-21.881,20.944-34.144a70.007,70.007,0,0,1,14.445,13.571,98.717,98.717,0,0,1-35.389,20.573m41.546-26.624a79.48,79.48,0,0,0-17.719-15.959,170.742,170.742,0,0,0,7.15-45.579h36.9a96.907,96.907,0,0,1-26.335,61.538" style="fill:#fff"/><path d="M165.859,64.453a21.485,21.485,0,1,0-21.484-21.484,21.508,21.508,0,0,0,21.484,21.484m0-34.375a12.891,12.891,0,1,1-12.891,12.891,12.905,12.905,0,0,1,12.891-12.891" style="fill:#fff"/><path d="M10.312,70.9a4.3,4.3,0,1,0,4.3-4.3,4.3,4.3,0,0,0-4.3,4.3" style="fill:#fff"/></svg>