<svg xmlns="http://www.w3.org/2000/svg" viewBox="0 0 220 220"><title>problems06-ico</title><path d="M216.072,78.571H200.305V61.037a3.931,3.931,0,0,0-3.214-3.863c-42.33-7.828-70.42,2.919-82.6,9.357-.225-.87-.479-1.706-.732-2.541.911-3.023,5.828-10.424,11.306-17.527a18.579,18.579,0,0,0,7.059,7.542,13.029,13.029,0,0,0,6.326,1.617,15.433,15.433,0,0,0,4.88-.826c14.552-4.849,26.47-23.176,18.248-51.95A3.929,3.929,0,0,0,155.624.658c-.106.071-10.916,7.2-21.391,7.2-8.864,0-21.07,8.484-22.678,18.387-.48,2.959-.393,9.6,8.121,14.384a156.844,156.844,0,0,0-9.7,13.758,66.358,66.358,0,0,0-8.989-13.76c8.508-4.788,8.595-11.423,8.115-14.382C107.5,16.339,95.292,7.855,86.428,7.855c-10.416,0-21.287-7.128-21.4-7.2a3.928,3.928,0,0,0-5.952,2.19c-8.222,28.774,3.7,47.1,18.248,51.95a15.427,15.427,0,0,0,4.879.826,13.033,13.033,0,0,0,6.327-1.617A18.612,18.612,0,0,0,95.6,46.447a58.185,58.185,0,0,1,10.872,20.61c-11.591-6.35-40.047-17.937-83.618-9.885a3.936,3.936,0,0,0-3.213,3.865V78.572H3.929A3.928,3.928,0,0,0,0,82.5V216.072A3.929,3.929,0,0,0,3.929,220H216.072A3.928,3.928,0,0,0,220,216.072V82.5a3.928,3.928,0,0,0-3.928-3.929M27.5,193.4c9.9-1.946,42.98-6.906,70.524,6.955H27.5ZM192.449,64.338V185.37c-12.994-2.455-48.994-6.99-78.52,10.41V75.947c6.605-4.152,33.964-18.924,78.52-11.609m.051,129.075v6.943H121.973c27.57-13.882,60.7-8.883,70.527-6.943M119.313,27.5c.922-5.692,9.548-11.79,14.92-11.79,8.154,0,16.139-3.3,21-5.795,4.325,20.932-4.062,33.983-14.391,37.426a5.858,5.858,0,0,1-4.924-.216c-2.712-1.478-4.493-5.175-5.317-7.487,3.539-4.129,6.839-7.494,8.952-8.8a3.927,3.927,0,1,0-4.116-6.69c-2.72,1.671-6.612,5.563-10.675,10.266-4.043-1.86-5.9-4.175-5.454-6.918M84.739,47.127a5.833,5.833,0,0,1-4.925.216C69.484,43.9,61.1,30.848,65.424,9.917c4.866,2.5,12.85,5.8,21,5.8,5.373,0,14,6.1,14.92,11.79.469,2.887-1.58,5.305-6.077,7.214l-9.994-10a3.928,3.928,0,0,0-5.555,5.555L89.8,40.341c-.915,2.3-2.612,5.452-5.057,6.786M27.5,64.338c44.591-7.313,71.975,7.467,78.572,11.609V195.781c-17.2-10.13-36.589-12.826-52.36-12.826A144.366,144.366,0,0,0,27.5,185.37Zm184.643,147.8H7.858V86.427H19.643V204.285a3.927,3.927,0,0,0,3.929,3.927H196.429a3.928,3.928,0,0,0,3.929-3.927V190.231c0-.092-.047-.167-.053-.257V86.427h11.838Z" style="fill:#fff"/><path d="M98.214,168.928a31.225,31.225,0,0,0-14.5-26.416,23.085,23.085,0,0,0,2.714-10.906c0-11.915-8.813-21.607-19.643-21.607s-19.643,9.692-19.643,21.607a23.108,23.108,0,0,0,2.718,10.914,31.3,31.3,0,0,0-14.5,26.408,3.929,3.929,0,0,0,3.929,3.928h55a3.928,3.928,0,0,0,3.928-3.928M66.786,117.856c6.5,0,11.785,6.169,11.785,13.75s-5.287,13.75-11.785,13.75S55,139.187,55,131.606s5.287-13.75,11.786-13.75M43.541,165a23.479,23.479,0,0,1,11.25-16.322,18.131,18.131,0,0,0,23.99,0A23.409,23.409,0,0,1,90.033,165Z" style="fill:#fff"/><path d="M125.714,133.571h55a3.929,3.929,0,0,0,3.929-3.93,31.258,31.258,0,0,0-14.5-26.411,23.094,23.094,0,0,0,2.717-10.909c0-11.915-8.814-21.609-19.644-21.609s-19.642,9.694-19.642,21.609a23.1,23.1,0,0,0,2.712,10.9,31.22,31.22,0,0,0-14.5,26.418,3.929,3.929,0,0,0,3.928,3.93m27.5-55c6.5,0,11.786,6.169,11.786,13.75s-5.287,13.75-11.786,13.75-11.785-6.17-11.785-13.75,5.287-13.75,11.785-13.75m-12,30.82a18.129,18.129,0,0,0,23.991,0,23.454,23.454,0,0,1,11.252,16.321H129.967a23.4,23.4,0,0,1,11.252-16.321" style="fill:#fff"/><path d="M168.929,153.213H157.143v-7.856a3.929,3.929,0,1,0-7.857,0v7.856H137.5a3.929,3.929,0,0,0-3.928,3.929V165a3.929,3.929,0,1,0,7.857,0V161.07H165V165a3.929,3.929,0,0,0,7.858,0v-7.857a3.93,3.93,0,0,0-3.929-3.929" style="fill:#fff"/><path d="M51.072,90.356H62.858v7.856a3.929,3.929,0,1,0,7.857,0V90.356H82.5a3.929,3.929,0,0,0,3.928-3.929V78.57a3.929,3.929,0,1,0-7.857,0V82.5H55V78.57a3.929,3.929,0,0,0-7.858,0v7.857a3.93,3.93,0,0,0,3.929,3.929" style="fill:#fff"/></svg>