<svg xmlns="http://www.w3.org/2000/svg" viewBox="0 0 210.548 220"><title>problems05-ico</title><path d="M68.806,139.126A28.177,28.177,0,0,0,58.6,128.854c-7.479-4.318-16.748-4.876-26.1-1.573a4.3,4.3,0,0,0-2.793,4.842c1.825,9.758,6.952,17.511,14.437,21.83a28.219,28.219,0,0,0,14.216,3.7,33.636,33.636,0,0,0,6.145-.583v16.285a4.3,4.3,0,0,0,8.593,0V157.068a33.606,33.606,0,0,0,6.15.585,28.216,28.216,0,0,0,14.229-3.706c7.481-4.32,12.6-12.072,14.418-21.827a4.3,4.3,0,0,0-2.791-4.838c-9.34-3.3-18.6-2.746-26.079,1.566a28.189,28.189,0,0,0-10.221,10.278M48.441,146.51a21.264,21.264,0,0,1-9.325-12.188A21.227,21.227,0,0,1,54.3,136.3a21.257,21.257,0,0,1,9.321,12.19,21.235,21.235,0,0,1-15.182-1.976M83.32,136.292a21.218,21.218,0,0,1,15.173-1.97,21.244,21.244,0,0,1-9.312,12.183,21.231,21.231,0,0,1-15.194,1.981,21.274,21.274,0,0,1,9.333-12.194" style="fill:#fff"/><path d="M33.009,108.761H45.082a4.3,4.3,0,0,0,0-8.594H33.009a4.3,4.3,0,0,0,0,8.594" style="fill:#fff"/><path d="M58.47,104.464a4.3,4.3,0,0,0,4.3,4.3H74.853a4.3,4.3,0,1,0,0-8.594H62.767a4.3,4.3,0,0,0-4.3,4.3" style="fill:#fff"/><path d="M92.537,108.761H104.61a4.3,4.3,0,1,0,0-8.594H92.537a4.3,4.3,0,0,0,0,8.594" style="fill:#fff"/><path d="M210.273,21.909A4.3,4.3,0,0,0,204.74,19.4c-20.1,7.549-23.836,20.623-23.759,32.288a18.738,18.738,0,0,0-16.466,18.578v33.642a4.3,4.3,0,0,0,4.3,4.3h10.115v75.931a6.4,6.4,0,1,1-12.791,0V148.191a18.715,18.715,0,0,0-18.683-18.706h-4.04V121.48a7.891,7.891,0,0,0-7.875-7.89H124.633V85.339h2.8a10.2,10.2,0,0,0,10.187-10.191V10.192A10.2,10.2,0,0,0,127.431,0H10.187A10.2,10.2,0,0,0,0,10.192V75.147A10.2,10.2,0,0,0,10.187,85.339h2.8V188.788H11.222A11.237,11.237,0,0,0,0,200.015v8.758A11.237,11.237,0,0,0,11.222,220H126.4a11.237,11.237,0,0,0,11.222-11.227v-8.757A11.238,11.238,0,0,0,126.4,188.788h-1.764v-34.8h10.905a7.891,7.891,0,0,0,7.875-7.89v-8.017h4.04a10.113,10.113,0,0,1,10.089,10.112v35.943a14.989,14.989,0,1,0,29.978,0V108.2h10.1a4.3,4.3,0,0,0,4.3-4.3V55.842a4.3,4.3,0,0,0-4.3-4.3h-8.04c-.034-10.5,3.687-18.661,18.18-24.1a4.3,4.3,0,0,0,2.512-5.533M126.4,197.382a2.667,2.667,0,0,1,2.629,2.634v8.757a2.667,2.667,0,0,1-2.629,2.634H11.222a2.666,2.666,0,0,1-2.628-2.634v-8.757a2.666,2.666,0,0,1,2.628-2.634ZM88.07,76.745a4.3,4.3,0,0,0,0,8.594h27.969V188.788H21.58V85.339H49.512a4.3,4.3,0,0,0,0-8.594H10.187a1.617,1.617,0,0,1-1.593-1.6V10.192a1.617,1.617,0,0,1,1.593-1.6H127.43a1.617,1.617,0,0,1,1.594,1.6V75.147a1.617,1.617,0,0,1-1.594,1.6Zm46.748,68.646H124.631V122.184h10.187Zm58.506-85.252V99.607H173.109V70.263a10.13,10.13,0,0,1,10.114-10.124Z" style="fill:#fff"/><path d="M115.93,17.454H21.69a4.3,4.3,0,0,0-4.3,4.3V62.992a4.3,4.3,0,0,0,4.3,4.3h94.24a4.3,4.3,0,0,0,4.3-4.3V21.751a4.3,4.3,0,0,0-4.3-4.3m-4.3,41.241H25.987V26.048h85.646Z" style="fill:#fff"/></svg>