<svg xmlns="http://www.w3.org/2000/svg" viewBox="0 0 70 58.0213">
    <defs>
        <style>.cls-1{fill:#ff8d00;}</style>
    </defs>
    <path class="cls-1"
          d="M30.3214,42.6733c0,9.1713-6.5514,15.348-14.9733,15.348C6.3641,58.0213,0,51.6573,0,42.6733c0-4.3047.7479-7.4867,4.1173-16.096L14.0381,0H29.0114L21.5248,28.6367C26.952,30.8819,30.3214,35.7487,30.3214,42.6733Z"/>
    <path class="cls-1"
          d="M70,42.6733c0,9.1713-6.55,15.348-14.9733,15.348-8.984,0-15.3481-6.364-15.3481-15.348,0-4.3047.7494-7.4867,4.1188-16.096L53.7167,0H68.69L61.2034,28.6367C66.6306,30.8819,70,35.7487,70,42.6733Z"/>
</svg>