<svg xmlns="http://www.w3.org/2000/svg" xmlns:xlink="http://www.w3.org/1999/xlink" viewBox="0 0 99.999 100">
    <defs>
        <clipPath id="a">
            <path d="M23.332,93.333V87.388C26.88,89.166,32.743,90,38.332,90a47.4,47.4,0,0,0,10.627-1.118l3.131,5.425c-2.053,1.06-6.629,2.36-13.758,2.36-9.751,0-14.75-2.434-15-3.334m15-6.667c-9.751,0-14.75-2.433-15-3.333V77.378c3.545,1.788,9.405,2.622,15,2.622a48.92,48.92,0,0,0,9.89-.94l-.157.272L51.8,81.489a13.072,13.072,0,0,0-.135,1.844c0,.375.048.761.083,1.142a34.054,34.054,0,0,1-12.091,2.217q-.663,0-1.326-.026M58.141,76.074a10.03,10.03,0,0,1,4-2.32l1.192-.354V70h3.334v3.4l1.191.354a10.027,10.027,0,0,1,4,2.32l.9.851,2.95-1.7,1.666,2.886-2.942,1.7.284,1.206a9.672,9.672,0,0,1,0,4.631l-.284,1.2,2.946,1.7-1.668,2.886-2.948-1.7-.9.849a10.021,10.021,0,0,1-4,2.322l-1.2.352v3.4H63.332v-3.4l-1.192-.352a10.034,10.034,0,0,1-4-2.322l-.9-.849-2.949,1.7-1.667-2.886,2.948-1.7-.286-1.2a9.672,9.672,0,0,1,0-4.631l.286-1.206-2.948-1.7,1.667-2.886,2.949,1.7Zm-17.894-6.11.592-.027c.451-.019.9-.046,1.351-.075l.646-.05c.46-.037.913-.082,1.366-.132l.532-.056c.617-.076,1.223-.163,1.817-.257l.28-.053q.745-.127,1.457-.278c.184-.039.366-.083.547-.126.38-.087.749-.182,1.111-.281.186-.05.366-.1.548-.154q.566-.169,1.093-.362c.127-.047.261-.087.383-.135q.684-.259,1.288-.558c.023-.011.051-.019.074-.031v3.434l-.265-.157L50.6,74.942a38.494,38.494,0,0,1-12.266,1.724c-9.751,0-14.75-2.432-15-3.333V67.389c.023.012.052.02.076.031q.6.3,1.288.558c.122.048.256.088.381.135.354.128.718.249,1.095.362.18.054.362.1.548.154.36.1.731.194,1.11.281.182.043.362.087.548.126q.714.153,1.457.278l.28.053q.888.144,1.817.257l.532.056c.453.05.905.095,1.366.132.215.019.429.034.646.05.449.029.9.056,1.351.075l.59.027c.64.022,1.278.037,1.915.037s1.275-.015,1.915-.037m-5.363-3.418c-7.466-.478-11.318-2.426-11.561-3.219C23.638,62.409,28.631,60,38.332,60c.607,0,1.2.01,1.766.026.2,0,.389.021.588.029.358.015.72.029,1.063.05.282.018.545.043.816.066.242.019.5.037.726.058.334.031.636.07.948.106.158.019.334.035.479.055.409.054.8.114,1.179.166l.133.019c4.626.768,7.056,2.1,7.294,2.746a.467.467,0,0,1-.043.083.871.871,0,0,1-.063.1c-.026.031-.062.062-.091.093s-.08.084-.132.13-.085.063-.128.095-.125.1-.2.149c-.048.03-.11.064-.166.1-.089.055-.166.107-.277.167-.062.034-.137.067-.2.1a3.582,3.582,0,0,1-.352.167l-.234.1c-.139.058-.275.117-.428.177-.085.033-.184.068-.273.1-.166.06-.323.12-.5.178-.1.035-.22.067-.332.1-.182.058-.358.115-.554.168-.125.037-.263.069-.392.1-.2.054-.391.106-.6.159-.149.037-.312.07-.468.1-.207.049-.411.1-.631.142-.178.036-.372.069-.559.1-.217.039-.428.083-.654.12s-.437.064-.656.1-.433.067-.666.1-.5.06-.756.088c-.228.025-.445.054-.679.077-.283.025-.584.046-.88.07-.221.017-.434.038-.668.052-.371.025-.76.038-1.151.054-.166,0-.333.019-.5.025-.573.018-1.167.027-1.767.027-1.218,0-2.364-.039-3.434-.106M20,63.334v30C20,97.913,29.5,100,38.332,100c8.41,0,17.408-1.9,18.25-6.034l.224-.127A13.359,13.359,0,0,0,60,95.688V100H70V95.688a13.307,13.307,0,0,0,3.194-1.849l3.74,2.166,5-8.667L78.2,85.183a12.689,12.689,0,0,0,0-3.692l3.734-2.157-5-8.668-3.74,2.167A13.328,13.328,0,0,0,70,70.978V66.667H60v4.311a13.4,13.4,0,0,0-3.193,1.85l-.141-.079V63.334c0-4.581-9.5-6.667-18.333-6.667S20,58.753,20,63.334"
                  style="fill:none"/>
        </clipPath>
        <linearGradient id="b" x1="-445.08" y1="501.053" x2="-444.08" y2="501.053"
                        gradientTransform="matrix(99.909, 0, 0, -99.909, 44458.462, 50138.229)"
                        gradientUnits="userSpaceOnUse">
            <stop offset="0" stop-color="#67b0fb"/>
            <stop offset="1" stop-color="#2b4c6e"/>
        </linearGradient>
        <clipPath id="c">
            <path d="M61.666,83.333A3.334,3.334,0,1,1,65,86.666a3.334,3.334,0,0,1-3.334-3.333m-3.333,0A6.667,6.667,0,1,0,65,76.666a6.667,6.667,0,0,0-6.667,6.667"
                  style="fill:none"/>
        </clipPath>
        <linearGradient id="d" x1="-445.08" y1="501.053" x2="-444.08" y2="501.053"
                        gradientTransform="matrix(99.909, 0, 0, -99.909, 44458.462, 50143.229)" xlink:href="#b"/>
        <clipPath id="e">
            <path d="M43.333,26.667H56.665V30H43.333Zm0-23.334H56.665v20H43.333ZM40,33.333H60V0H40Z" style="fill:none"/>
        </clipPath>
        <linearGradient id="f" x1="-445.08" y1="501.053" x2="-444.08" y2="501.053"
                        gradientTransform="matrix(99.909, 0, 0, -99.909, 44458.462, 50076.562)" xlink:href="#b"/>
        <clipPath id="g">
            <path d="M49.665,26.7a1.019,1.019,0,0,0-.3.1,1.376,1.376,0,0,0-.3.151c-.085.062-.169.13-.248.2a1.747,1.747,0,0,0-.484,1.184,1.667,1.667,0,1,0,3.334,0,1.747,1.747,0,0,0-.484-1.184A1.692,1.692,0,0,0,50,26.667a1.646,1.646,0,0,0-.334.034"
                  style="fill:none"/>
        </clipPath>
        <linearGradient id="h" x1="-445.08" y1="501.053" x2="-444.08" y2="501.053"
                        gradientTransform="matrix(99.909, 0, 0, -99.909, 44458.462, 50088.229)" xlink:href="#b"/>
        <clipPath id="i">
            <polygon
                    points="81.665 36.666 81.665 43.333 51.666 43.333 51.666 36.666 48.332 36.666 48.332 43.333 18.333 43.333 18.333 36.666 14.999 36.666 14.999 46.666 48.332 46.666 48.332 53.333 51.666 53.333 51.666 46.666 84.999 46.666 84.999 36.666 81.665 36.666"
                    style="fill:none"/>
        </clipPath>
        <linearGradient id="j" x1="-445.08" y1="501.053" x2="-444.08" y2="501.053"
                        gradientTransform="matrix(99.909, 0, 0, -99.909, 44458.462, 50104.896)" xlink:href="#b"/>
        <clipPath id="k">
            <path d="M13.332,26.667H20V30H13.332ZM3.333,20H30v3.333H3.333Zm0-16.667H30V16.667H3.333ZM0,0V26.667H10V30H6.667v3.332h20V30H23.332V26.667h10V0Z"
                  style="fill:none"/>
        </clipPath>
        <clipPath id="m">
            <path d="M70,13.333H96.665V30H70Zm0-10H96.665V10H70Zm-3.333,30H100V0H66.666Z" style="fill:none"/>
        </clipPath>
        <clipPath id="o">
            <path d="M72.147,5.484a1.721,1.721,0,0,0-.349.55,1.651,1.651,0,0,0,.349,1.817,1.925,1.925,0,0,0,.551.35,1.57,1.57,0,0,0,1.267,0,1.948,1.948,0,0,0,.55-.35A1.668,1.668,0,0,0,75,6.666a1.761,1.761,0,0,0-.483-1.182,1.666,1.666,0,0,0-.267-.2,1.859,1.859,0,0,0-.6-.249A1.647,1.647,0,0,0,73.322,5a1.672,1.672,0,0,0-1.175.483"
                  style="fill:none"/>
        </clipPath>
        <linearGradient id="p" x1="-445.08" y1="501.053" x2="-444.08" y2="501.053"
                        gradientTransform="matrix(99.909, 0, 0, -99.909, 44458.462, 50066.563)" xlink:href="#b"/>
        <clipPath id="q">
            <path d="M77.15,5.484a1.674,1.674,0,0,0-.35.55,1.65,1.65,0,0,0-.134.632A1.4,1.4,0,0,0,76.8,7.3a1.944,1.944,0,0,0,.35.552,1.653,1.653,0,0,0,1.817.35,1.957,1.957,0,0,0,.549-.35,1.944,1.944,0,0,0,.35-.552,1.565,1.565,0,0,0,0-1.265,1.907,1.907,0,0,0-.35-.55,1.743,1.743,0,0,0-2.366,0"
                  style="fill:none"/>
        </clipPath>
        <linearGradient id="r" x1="-445.08" y1="501.053" x2="-444.08" y2="501.053"
                        gradientTransform="matrix(99.909, 0, 0, -99.909, 44458.462, 50066.573)" xlink:href="#b"/>
        <clipPath id="s">
            <path d="M83,5.034a1.036,1.036,0,0,0-.3.1,1.248,1.248,0,0,0-.3.149,3.156,3.156,0,0,0-.248.2,1.529,1.529,0,0,0-.35.55,1.565,1.565,0,0,0,0,1.265,1.944,1.944,0,0,0,.35.552,1.948,1.948,0,0,0,.55.35,1.666,1.666,0,0,0,.634.132,1.72,1.72,0,0,0,1.182-.482,1.944,1.944,0,0,0,.35-.552,1.565,1.565,0,0,0,0-1.265,1.5,1.5,0,0,0-.35-.55,1.921,1.921,0,0,0-.549-.35A1.564,1.564,0,0,0,83.329,5,1.527,1.527,0,0,0,83,5.034"
                  style="fill:none"/>
        </clipPath>
        <linearGradient id="t" x1="-445.08" y1="501.053" x2="-444.08" y2="501.053"
                        gradientTransform="matrix(99.909, 0, 0, -99.909, 44458.462, 50066.562)" xlink:href="#b"/>
    </defs>
    <title>solution01-ico</title>
    <g style="clip-path:url(#a)">
        <rect x="19.999" y="56.667" width="61.933" height="43.333" style="fill:url(#b)"/>
    </g>
    <g style="clip-path:url(#c)">
        <rect x="58.333" y="76.667" width="13.334" height="13.333" style="fill:url(#d)"/>
    </g>
    <g style="clip-path:url(#e)">
        <rect x="40" width="19.999" height="33.333" style="fill:url(#f)"/>
    </g>
    <g style="clip-path:url(#g)">
        <rect x="48.332" y="26.667" width="3.334" height="3.334" style="fill:url(#h)"/>
    </g>
    <g style="clip-path:url(#i)">
        <rect x="14.999" y="36.666" width="70" height="16.667" style="fill:url(#j)"/>
    </g>
    <g style="clip-path:url(#k)">
        <rect width="33.333" height="33.333" style="fill:url(#f)"/>
    </g>
    <g style="clip-path:url(#m)">
        <rect x="66.666" width="33.333" height="33.333" style="fill:url(#f)"/>
    </g>
    <g style="clip-path:url(#o)">
        <rect x="71.531" y="5.001" width="3.471" height="3.377" style="fill:url(#p)"/>
    </g>
    <g style="clip-path:url(#q)">
        <rect x="76.66" y="5.021" width="3.384" height="3.445" style="fill:url(#r)"/>
    </g>
    <g style="clip-path:url(#s)">
        <rect x="81.621" y="4.999" width="3.422" height="3.334" style="fill:url(#t)"/>
    </g>
</svg>