<?xml version="1.0" encoding="utf-8"?>
<!-- Generator: Adobe Illustrator 23.1.0, SVG Export Plug-In . SVG Version: 6.00 Build 0)  -->
<svg version="1.1" id="Слой_1" xmlns="http://www.w3.org/2000/svg" xmlns:xlink="http://www.w3.org/1999/xlink" x="0px" y="0px"
	 viewBox="0 0 100 71" style="enable-background:new 0 0 100 71;" xml:space="preserve">
<style type="text/css">
	.st0{clip-path:url(#SVGID_2_);fill:url(#SVGID_3_);}
</style>
<g>
	<defs>
		<path id="SVGID_1_" d="M3.2,64.5h93.5v3.2H3.2V64.5z M9.7,54.8h9.7v6.5H9.7V54.8z M27.4,41.9h9.7v19.4h-9.7V41.9z M45.2,29h9.7
			v32.3h-9.7V29z M62.9,16.1h9.7v45.2h-9.7V16.1z M80.6,3.2h9.7v58.1h-9.7V3.2z M79,0c-0.9,0-1.6,0.7-1.6,1.6v59.7h-1.6V14.5
			c0-0.9-0.7-1.6-1.6-1.6H61.3c-0.9,0-1.6,0.7-1.6,1.6v46.8h-1.6V27.4c0-0.9-0.7-1.6-1.6-1.6H43.5c-0.9,0-1.6,0.7-1.6,1.6v33.9h-1.6
			v-21c0-0.9-0.7-1.6-1.6-1.6H25.8c-0.9,0-1.6,0.7-1.6,1.6v21h-1.6v-8.1c0-0.9-0.7-1.6-1.6-1.6H8.1c-0.9,0-1.6,0.7-1.6,1.6v8.1H1.6
			C0.7,61.3,0,62,0,62.9v6.5C0,70.2,0.7,71,1.6,71h96.8c0.9,0,1.6-0.7,1.6-1.6v-6.5c0-0.9-0.7-1.6-1.6-1.6h-4.8V1.6
			c0-0.9-0.7-1.6-1.6-1.6H79z"/>
	</defs>
	<clipPath id="SVGID_2_">
		<use xlink:href="#SVGID_1_"  style="overflow:visible;"/>
	</clipPath>
	
		<linearGradient id="SVGID_3_" gradientUnits="userSpaceOnUse" x1="-535.8356" y1="527.7578" x2="-534.8356" y2="527.7578" gradientTransform="matrix(112.0936 -112.0936 112.0936 112.0936 904.1681 -119135.1797)">
		<stop  offset="0" style="stop-color:#67B0FB"/>
		<stop  offset="1" style="stop-color:#2B4C6E"/>
	</linearGradient>
	<polygon class="st0" points="50,121 135.5,35.5 50,-50 -35.5,35.5 	"/>
</g>
</svg>
