<svg xmlns="http://www.w3.org/2000/svg" viewBox="0 0 60 73.577"><title>strategic04</title><path d="M30.016,73.577a6.66,6.66,0,0,1-2.376-.438A63.747,63.747,0,0,1,7.222,60.492C2.311,55.906-.119,48.08,0,37.232l0-.594c0-5.739.165-13.779.3-19.512A8.175,8.175,0,0,1,5.271,9.835L26.789.653a8.226,8.226,0,0,1,6.425,0L54.731,9.835a8.169,8.169,0,0,1,4.957,7.291c.138,5.686.3,13.686.3,19.512l0,.506c.09,10.872-2.371,18.761-7.32,23.45A62.727,62.727,0,0,1,32.363,73.15a6.681,6.681,0,0,1-2.347.427M30,1.817a6.376,6.376,0,0,0-2.5.508L5.984,11.508a6.347,6.347,0,0,0-3.853,5.663c-.139,5.722-.3,13.746-.3,19.467l0,.614C1.705,47.568,3.94,54.94,8.463,59.164A62.938,62.938,0,0,0,28.286,71.44a4.864,4.864,0,0,0,3.438.008A61.909,61.909,0,0,0,51.431,59.271c4.563-4.325,6.835-11.765,6.748-22.112l0-.521c0-5.808-.165-13.792-.306-19.467a6.343,6.343,0,0,0-3.851-5.663L32.5,2.325A6.384,6.384,0,0,0,30,1.817" style="fill:#67b1fb"/><path d="M28.543,43a.909.909,0,0,1-.6-.226l-9.456-8.313a.909.909,0,1,1,1.2-1.365L28.5,40.84,42.074,26.911a.91.91,0,0,1,1.3,1.27L29.2,42.728a.91.91,0,0,1-.652.274" style="fill:#67b1fb"/></svg>