<svg xmlns="http://www.w3.org/2000/svg" viewBox="0 0 71.997 71.994"><title>strategic01</title><path d="M60.066,59.2,44.63,43.759a11.6,11.6,0,0,0,.253-15.234L60.369,13.039A7.254,7.254,0,0,0,72,7.251,7.25,7.25,0,0,0,64.743,0h0a7.2,7.2,0,0,0-5.129,2.122,7.278,7.278,0,0,0-.658,9.5L43.469,27.112a11.571,11.571,0,0,0-14.656-.222.937.937,0,0,0-.069-.1L13.267,11.309A7.253,7.253,0,0,0,7.252,0h0A7.254,7.254,0,0,0,2.122,12.381a7.294,7.294,0,0,0,9.806.417l15.4,15.4c.016.015.037.021.053.035a11.569,11.569,0,0,0-.271,15.233L11.625,58.955A7.251,7.251,0,0,0,0,64.743a7.254,7.254,0,0,0,12.381,5.129,7.278,7.278,0,0,0,.658-9.5L28.526,44.882a11.592,11.592,0,0,0,14.643.244L58.728,60.685A7.255,7.255,0,1,0,60.066,59.2M3.536,10.967a5.255,5.255,0,1,1,7.431,0,5.26,5.26,0,0,1-7.431,0m57.491,50.06a5.255,5.255,0,1,1,0,7.431,5.224,5.224,0,0,1,0-7.431M36,26.383A9.614,9.614,0,1,1,26.384,36,9.624,9.624,0,0,1,36,26.383M61.027,3.536a5.255,5.255,0,1,1,0,7.431,5.225,5.225,0,0,1,0-7.431M7.251,70a5.255,5.255,0,1,1,3.716-1.539A5.221,5.221,0,0,1,7.251,70" style="fill:#67b1fb"/></svg>