<svg xmlns="http://www.w3.org/2000/svg" xmlns:xlink="http://www.w3.org/1999/xlink" viewBox="0 0 80.227 75.001"><defs><clipPath id="a" transform="translate(-0.001)"><path d="M0,50.567V74.084a.918.918,0,0,0,1.835,0V50.567a.918.918,0,1,0-1.835,0m78.392,0V74.084a.918.918,0,0,0,1.836,0V50.567a.918.918,0,1,0-1.836,0M47.037,42.726V74.084a.917.917,0,0,0,1.833,0V42.726a.917.917,0,0,0-1.833,0M15.679,27.05V74.084a.918.918,0,0,0,1.835,0V27.05a.918.918,0,1,0-1.835,0M62.716,16.6V74.084a.917.917,0,0,0,1.833,0V16.6a.917.917,0,0,0-1.833,0M31.358.919V74.084a.918.918,0,0,0,1.835,0V.919a.918.918,0,1,0-1.835,0" style="fill:none"/></clipPath></defs><title>strategic02</title><g style="clip-path:url(#a)"><rect x="47.036" y="41.809" width="1.833" height="33.191" style="fill:#67b1fb"/><rect x="62.714" y="15.679" width="1.834" height="59.322" style="fill:#67b1fb"/><rect y="49.648" width="0.547" height="25.352" style="fill:#67b1fb"/><rect x="0.547" y="49.648" width="0.592" height="25.352" style="fill:#67b1fb"/><rect x="1.139" y="49.648" width="0.592" height="25.352" style="fill:#67b1fb"/><rect x="1.731" y="49.649" width="0.104" height="25.352" style="fill:#67b1fb"/><rect x="78.393" y="49.649" width="1.834" height="25.352" style="fill:#67b1fb"/><rect x="15.679" y="26.131" width="0.256" height="48.869" style="fill:#67b1fb"/><rect x="15.934" y="26.131" width="0.592" height="48.869" style="fill:#67b1fb"/><rect x="16.526" y="26.131" width="0.592" height="48.869" style="fill:#67b1fb"/><rect x="17.118" y="26.131" width="0.395" height="48.869" style="fill:#67b1fb"/><rect x="31.357" width="0.557" height="75" style="fill:#67b1fb"/><rect x="31.914" width="0.592" height="75" style="fill:#67b1fb"/><rect x="32.506" width="0.592" height="75" style="fill:#67b1fb"/><rect x="33.098" width="0.094" height="75" style="fill:#67b1fb"/></g></svg>